# Blender 5.0.1
# www.blender.org
mtllib Home.mtl
o Cube
v 8.000000 0.000000 -7.000000
v 8.000000 -1.000000 -7.000000
v 8.000000 0.000000 100.000000
v 8.000000 -1.000000 100.000000
v -8.000000 0.000000 -7.000000
v -8.000000 -1.000000 -7.000000
v -8.000000 0.000000 100.000000
v -8.000000 -1.000000 100.000000
v 20.000000 0.000000 -7.000000
v 20.000000 -1.000000 -7.000000
v 20.000000 0.000000 100.000000
v 20.000000 -1.000000 100.000000
v 30.000000 0.000000 -7.000000
v 30.000000 -1.000000 -7.000000
v 30.000000 0.000000 100.000000
v 30.000000 -1.000000 100.000000
v 40.000000 0.000000 -7.000000
v 40.000000 -1.000000 -7.000000
v 40.000000 0.000000 100.000000
v 40.000000 -1.000000 100.000000
v 50.000000 0.000000 -7.000000
v 50.000000 -1.000000 -7.000000
v 50.000000 0.000000 100.000000
v 50.000000 -1.000000 100.000000
v 60.000000 0.000000 -7.000000
v 60.000000 -1.000000 -7.000000
v 60.000000 0.000000 100.000000
v 60.000000 -1.000000 100.000000
v 70.000000 0.000000 -7.000000
v 70.000000 -1.000000 -7.000000
v 70.000000 0.000000 100.000000
v 70.000000 -1.000000 100.000000
v 80.000000 0.000000 -7.000000
v 80.000000 -1.000000 -7.000000
v 80.000000 0.000000 100.000000
v 80.000000 -1.000000 100.000000
v 90.000000 0.000000 -7.000000
v 90.000000 -1.000000 -7.000000
v 90.000000 0.000000 100.000000
v 90.000000 -1.000000 100.000000
v 100.000000 0.000000 -7.000000
v 100.000000 -1.000000 -7.000000
v 100.000000 0.000000 100.000000
v 100.000000 -1.000000 100.000000
vn -0.0000 1.0000 -0.0000
vn -0.0000 -0.0000 1.0000
vn -1.0000 -0.0000 -0.0000
vn -0.0000 -1.0000 -0.0000
vn -0.0000 -0.0000 -1.0000
vn 1.0000 -0.0000 -0.0000
vt -34.685184 50.037041
vt -49.500000 50.037041
vt -49.500000 -49.037037
vt -34.685184 -49.037037
vt -34.685184 0.037036
vt -34.685184 0.962961
vt -49.500000 0.962961
vt -49.500000 0.037036
vt -49.037037 0.037036
vt -49.037037 0.962961
vt 50.037041 0.962961
vt 50.037041 0.037036
vt -23.574074 0.037036
vt -23.574074 0.962961
vt -23.574074 -49.037037
vt -23.574074 50.037041
vt -14.314815 50.037041
vt -14.314815 -49.037037
vt -5.055555 -49.037037
vt -5.055555 50.037041
vt -14.314815 0.037036
vt -14.314815 0.962961
vt 4.203701 -49.037037
vt 4.203701 50.037041
vt -5.055555 0.962961
vt -5.055555 0.037036
vt 13.462961 50.037041
vt 13.462961 -49.037037
vt 4.203701 0.962961
vt 4.203701 0.037036
vt 22.722221 -49.037037
vt 22.722221 50.037041
vt 13.462961 0.037036
vt 13.462961 0.962961
vt 22.722221 0.037036
vt 22.722221 0.962961
vt 31.981480 0.962961
vt 31.981480 0.037036
vt 31.981480 -49.037037
vt 31.981480 50.037041
vt 41.240742 50.037041
vt 41.240742 -49.037037
vt 50.500000 -49.037037
vt 50.500000 50.037041
vt 41.240742 0.037036
vt 41.240742 0.962961
vt 50.500000 0.962961
vt 50.500000 0.037036
s 0
usemtl Material
f 1/1/1 5/2/1 7/3/1 3/4/1
f 4/5/2 3/6/2 7/7/2 8/8/2
f 8/9/3 7/10/3 5/11/3 6/12/3
f 6/2/4 2/1/4 4/4/4 8/3/4
f 3/6/2 4/5/2 12/13/2 11/14/2
f 6/8/5 5/7/5 1/6/5 2/5/5
f 12/15/4 10/16/4 14/17/4 16/18/4
f 2/5/5 1/6/5 9/14/5 10/13/5
f 4/4/4 2/1/4 10/16/4 12/15/4
f 1/1/1 3/4/1 11/15/1 9/16/1
f 13/17/1 15/18/1 19/19/1 17/20/1
f 11/14/2 12/13/2 16/21/2 15/22/2
f 9/16/1 11/15/1 15/18/1 13/17/1
f 10/13/5 9/14/5 13/22/5 14/21/5
f 17/20/1 19/19/1 23/23/1 21/24/1
f 14/21/5 13/22/5 17/25/5 18/26/5
f 16/18/4 14/17/4 18/20/4 20/19/4
f 15/22/2 16/21/2 20/26/2 19/25/2
f 24/23/4 22/24/4 26/27/4 28/28/4
f 18/26/5 17/25/5 21/29/5 22/30/5
f 20/19/4 18/20/4 22/24/4 24/23/4
f 19/25/2 20/26/2 24/30/2 23/29/2
f 25/27/1 27/28/1 31/31/1 29/32/1
f 23/29/2 24/30/2 28/33/2 27/34/2
f 21/24/1 23/23/1 27/28/1 25/27/1
f 22/30/5 21/29/5 25/34/5 26/33/5
f 30/35/5 29/36/5 33/37/5 34/38/5
f 26/33/5 25/34/5 29/36/5 30/35/5
f 28/28/4 26/27/4 30/32/4 32/31/4
f 27/34/2 28/33/2 32/35/2 31/36/2
f 36/39/4 34/40/4 38/41/4 40/42/4
f 32/31/4 30/32/4 34/40/4 36/39/4
f 31/36/2 32/35/2 36/38/2 35/37/2
f 29/32/1 31/31/1 35/39/1 33/40/1
f 37/41/1 39/42/1 43/43/1 41/44/1
f 35/37/2 36/38/2 40/45/2 39/46/2
f 33/40/1 35/39/1 39/42/1 37/41/1
f 34/38/5 33/37/5 37/46/5 38/45/5
f 42/12/6 41/11/6 43/10/6 44/9/6
f 38/45/5 37/46/5 41/47/5 42/48/5
f 40/42/4 38/41/4 42/44/4 44/43/4
f 39/46/2 40/45/2 44/48/2 43/47/2
o Cube.002
v 7.999999 0.000000 -7.000000
v 7.999999 6.000000 -7.000000
v 8.000001 0.000000 20.000000
v 8.000001 6.000000 20.000000
v 6.999999 0.000000 -7.000000
v 6.999999 6.000000 -7.000000
v 7.000001 0.000000 20.000000
v 7.000001 6.000000 20.000000
vn 1.0000 -0.0000 -0.0000
vn -0.0000 -0.0000 1.0000
vn -1.0000 -0.0000 -0.0000
vn -0.0000 -0.0000 -1.0000
vn -0.0000 -1.0000 -0.0000
vn -0.0000 1.0000 -0.0000
vt 0.375000 0.000000
vt 0.625000 0.000000
vt 0.625000 0.250000
vt 0.375000 0.250000
vt 0.625000 0.500000
vt 0.375000 0.500000
vt 0.625000 0.750000
vt 0.375000 0.750000
vt 0.625000 1.000000
vt 0.375000 1.000000
vt 0.125000 0.500000
vt 0.125000 0.750000
vt 0.875000 0.500000
vt 0.875000 0.750000
s 0
f 45/49/7 46/50/7 48/51/7 47/52/7
f 47/52/8 48/51/8 52/53/8 51/54/8
f 51/54/9 52/53/9 50/55/9 49/56/9
f 49/56/10 50/55/10 46/57/10 45/58/10
f 47/59/11 51/54/11 49/56/11 45/60/11
f 52/53/12 48/61/12 46/62/12 50/55/12
o Cube.003
v 7.000000 0.000000 -6.000000
v 7.000000 6.000000 -6.000000
v -7.000000 0.000000 -6.000000
v -7.000000 6.000000 -6.000000
v 7.000000 0.000000 -7.000000
v 7.000000 6.000000 -7.000000
v -7.000000 0.000000 -7.000000
v -7.000000 6.000000 -7.000000
vn -0.0000 -0.0000 1.0000
vn -1.0000 -0.0000 -0.0000
vn -0.0000 -0.0000 -1.0000
vn 1.0000 -0.0000 -0.0000
vn -0.0000 -1.0000 -0.0000
vn -0.0000 1.0000 -0.0000
vt 0.375000 0.000000
vt 0.625000 0.000000
vt 0.625000 0.250000
vt 0.375000 0.250000
vt 0.625000 0.500000
vt 0.375000 0.500000
vt 0.625000 0.750000
vt 0.375000 0.750000
vt 0.625000 1.000000
vt 0.375000 1.000000
vt 0.125000 0.500000
vt 0.125000 0.750000
vt 0.875000 0.500000
vt 0.875000 0.750000
s 0
f 53/63/13 54/64/13 56/65/13 55/66/13
f 55/66/14 56/65/14 60/67/14 59/68/14
f 59/68/15 60/67/15 58/69/15 57/70/15
f 57/70/16 58/69/16 54/71/16 53/72/16
f 55/73/17 59/68/17 57/70/17 53/74/17
f 60/67/18 56/75/18 54/76/18 58/69/18
o Cube.004
v 7.999999 0.000000 25.000000
v 7.999999 6.000000 25.000000
v 8.000001 0.000000 100.000000
v 8.000001 6.000000 100.000000
v 6.999999 0.000000 25.000000
v 6.999999 6.000000 25.000000
v 7.000001 0.000000 100.000000
v 7.000001 6.000000 100.000000
vn 1.0000 -0.0000 -0.0000
vn -0.0000 -0.0000 1.0000
vn -1.0000 -0.0000 -0.0000
vn -0.0000 -0.0000 -1.0000
vn -0.0000 -1.0000 -0.0000
vn -0.0000 1.0000 -0.0000
vt 0.375000 0.000000
vt 0.625000 0.000000
vt 0.625000 0.250000
vt 0.375000 0.250000
vt 0.625000 0.500000
vt 0.375000 0.500000
vt 0.625000 0.750000
vt 0.375000 0.750000
vt 0.625000 1.000000
vt 0.375000 1.000000
vt 0.125000 0.500000
vt 0.125000 0.750000
vt 0.875000 0.500000
vt 0.875000 0.750000
s 0
f 61/77/19 62/78/19 64/79/19 63/80/19
f 63/80/20 64/79/20 68/81/20 67/82/20
f 67/82/21 68/81/21 66/83/21 65/84/21
f 65/84/22 66/83/22 62/85/22 61/86/22
f 63/87/23 67/82/23 65/84/23 61/88/23
f 68/81/24 64/89/24 62/90/24 66/83/24
o Cube.005
v -8.000000 0.000000 100.000000
v -8.000000 6.000000 100.000000
v -8.000000 0.000000 -7.000000
v -8.000000 6.000000 -7.000000
v -7.000000 0.000000 100.000000
v -7.000000 6.000000 100.000000
v -7.000000 0.000000 -7.000000
v -7.000000 6.000000 -7.000000
vn -1.0000 -0.0000 -0.0000
vn -0.0000 -0.0000 -1.0000
vn 1.0000 -0.0000 -0.0000
vn -0.0000 -0.0000 1.0000
vn -0.0000 -1.0000 -0.0000
vn -0.0000 1.0000 -0.0000
vt 0.375000 0.000000
vt 0.625000 0.000000
vt 0.625000 0.250000
vt 0.375000 0.250000
vt 0.625000 0.500000
vt 0.375000 0.500000
vt 0.625000 0.750000
vt 0.375000 0.750000
vt 0.625000 1.000000
vt 0.375000 1.000000
vt 0.125000 0.500000
vt 0.125000 0.750000
vt 0.875000 0.500000
vt 0.875000 0.750000
s 0
f 69/91/25 70/92/25 72/93/25 71/94/25
f 71/94/26 72/93/26 76/95/26 75/96/26
f 75/96/27 76/95/27 74/97/27 73/98/27
f 73/98/28 74/97/28 70/99/28 69/100/28
f 71/101/29 75/96/29 73/98/29 69/102/29
f 76/95/30 72/103/30 70/104/30 74/97/30
o Cube.006
v 8.000000 7.000000 -7.000000
v 8.000000 6.000000 -7.000000
v 8.000000 7.000000 50.000000
v 8.000000 6.000000 50.000000
v -8.000000 7.000000 -7.000000
v -8.000000 6.000000 -7.000000
v -8.000000 7.000000 50.000000
v -8.000000 6.000000 50.000000
vn -0.0000 1.0000 -0.0000
vn -0.0000 -0.0000 1.0000
vn -1.0000 -0.0000 -0.0000
vn -0.0000 -1.0000 -0.0000
vn 1.0000 -0.0000 -0.0000
vn -0.0000 -0.0000 -1.0000
vt 6.020000 5.330000
vt -5.020000 5.330000
vt -5.020000 -4.330000
vt 6.020000 -4.330000
vt 6.020000 0.155000
vt 6.020000 0.845000
vt -5.020000 0.845000
vt -5.020000 0.155000
vt -4.330000 0.155000
vt -4.330000 0.845000
vt 5.330000 0.845000
vt 5.330000 0.155000
s 0
usemtl Material.001
f 77/105/31 81/106/31 83/107/31 79/108/31
f 80/109/32 79/110/32 83/111/32 84/112/32
f 84/113/33 83/114/33 81/115/33 82/116/33
f 82/106/34 78/105/34 80/108/34 84/107/34
f 78/116/35 77/115/35 79/114/35 80/113/35
f 82/112/36 81/111/36 77/110/36 78/109/36
o Cube.007
v 7.000000 0.000000 100.000000
v 7.000000 6.000000 100.000000
v -7.000000 0.000000 100.000000
v -7.000000 6.000000 100.000000
v 7.000000 0.000000 99.000000
v 7.000000 6.000000 99.000000
v -7.000000 0.000000 99.000000
v -7.000000 6.000000 99.000000
vn -0.0000 -0.0000 1.0000
vn -1.0000 -0.0000 -0.0000
vn -0.0000 -0.0000 -1.0000
vn 1.0000 -0.0000 -0.0000
vn -0.0000 -1.0000 -0.0000
vn -0.0000 1.0000 -0.0000
vt 0.375000 0.000000
vt 0.625000 0.000000
vt 0.625000 0.250000
vt 0.375000 0.250000
vt 0.625000 0.500000
vt 0.375000 0.500000
vt 0.625000 0.750000
vt 0.375000 0.750000
vt 0.625000 1.000000
vt 0.375000 1.000000
vt 0.125000 0.500000
vt 0.125000 0.750000
vt 0.875000 0.500000
vt 0.875000 0.750000
s 0
f 85/117/37 86/118/37 88/119/37 87/120/37
f 87/120/38 88/119/38 92/121/38 91/122/38
f 91/122/39 92/121/39 90/123/39 89/124/39
f 89/124/40 90/123/40 86/125/40 85/126/40
f 87/127/41 91/122/41 89/124/41 85/128/41
f 92/121/42 88/129/42 86/130/42 90/123/42
o Cube.001
v -7.000000 1.000000 50.000000
v -7.000000 5.000000 50.000000
v -7.000000 1.000000 49.000000
v -7.000000 5.000000 49.000000
v -6.000000 1.000000 50.000000
v -6.000000 5.000000 50.000000
v -6.000000 1.000000 49.000000
v -6.000000 5.000000 49.000000
v -7.000000 6.000000 50.000000
v -7.000000 6.000000 49.000000
v -6.000000 6.000000 50.000000
v -6.000000 6.000000 49.000000
v 6.000000 5.000000 50.000000
v 6.000000 5.000000 49.000000
v 6.000000 6.000000 50.000000
v 6.000000 6.000000 49.000000
v 7.000000 5.000000 50.000000
v 7.000000 5.000000 49.000000
v 7.000000 6.000000 50.000000
v 7.000000 6.000000 49.000000
v 6.000000 1.000000 50.000000
v 6.000000 1.000000 49.000000
v 7.000000 1.000000 50.000000
v 7.000000 1.000000 49.000000
v 6.000000 0.000000 50.000000
v 6.000000 0.000000 49.000000
v 7.000000 0.000000 50.000000
v 7.000000 0.000000 49.000000
v -6.000000 0.000000 50.000000
v -6.000000 0.000000 49.000000
v -7.000000 0.000000 50.000000
v -7.000000 0.000000 49.000000
vn -1.0000 -0.0000 -0.0000
vn -0.0000 -0.0000 -1.0000
vn 1.0000 -0.0000 -0.0000
vn -0.0000 -0.0000 1.0000
vn -0.0000 1.0000 -0.0000
vn -0.0000 -1.0000 -0.0000
vt 0.375000 0.000000
vt 0.625000 0.000000
vt 0.625000 0.250000
vt 0.375000 0.250000
vt 0.625000 0.500000
vt 0.375000 0.500000
vt 0.625000 0.750000
vt 0.375000 0.750000
vt 0.625000 1.000000
vt 0.375000 1.000000
vt 0.875000 0.500000
vt 0.875000 0.750000
vt 0.125000 0.500000
vt 0.125000 0.750000
s 0
f 93/131/43 94/132/43 96/133/43 95/134/43
f 95/134/44 96/133/44 100/135/44 99/136/44
f 99/136/45 100/135/45 98/137/45 97/138/45
f 97/138/46 98/137/46 94/139/46 93/140/46
f 97/138/46 93/140/46 123/140/46 121/138/46
f 100/135/44 96/133/44 102/133/44 104/135/44
f 104/135/47 102/141/47 101/142/47 103/137/47
f 104/135/47 103/137/47 107/137/47 108/135/47
f 96/133/43 94/132/43 101/132/43 102/133/43
f 94/139/46 98/137/46 103/137/46 101/139/46
f 107/137/46 105/137/46 109/137/46 111/137/46
f 98/137/48 100/135/48 106/135/48 105/137/48
f 100/135/44 104/135/44 108/135/44 106/135/44
f 103/137/46 98/137/46 105/137/46 107/137/46
f 109/137/45 110/135/45 112/135/45 111/137/45
f 108/135/47 107/137/47 111/137/47 112/135/47
f 106/135/44 108/135/44 112/135/44 110/135/44
f 109/137/46 105/137/46 113/137/46 115/137/46
f 115/137/46 113/137/46 117/137/46 119/137/46
f 110/135/45 109/137/45 115/137/45 116/135/45
f 106/135/44 110/135/44 116/135/44 114/135/44
f 105/137/43 106/135/43 114/135/43 113/137/43
f 117/137/48 118/135/48 120/135/48 119/137/48
f 114/135/44 116/135/44 120/135/44 118/135/44
f 116/135/45 115/137/45 119/137/45 120/135/45
f 97/137/43 99/135/43 122/135/43 121/137/43
f 124/143/48 122/136/48 121/138/48 123/144/48
f 95/134/44 99/136/44 122/136/44 124/134/44
f 93/131/43 95/134/43 124/134/43 123/131/43
f 113/137/43 114/135/43 118/135/43 117/137/43
